<?xml version="1.0" encoding="iso-8859-1"?>
<!-- Uploaded to: SVG Repo, www.svgrepo.com, Generator: SVG Repo Mixer Tools -->
<!DOCTYPE svg PUBLIC "-//W3C//DTD SVG 1.1//EN" "http://www.w3.org/Graphics/SVG/1.1/DTD/svg11.dtd">
<svg fill="#000000" version="1.1" id="Capa_1" xmlns="http://www.w3.org/2000/svg" xmlns:xlink="http://www.w3.org/1999/xlink" 
	 width="800px" height="800px" viewBox="0 0 45.845 45.845"
	 xml:space="preserve">
<g>
	<g>
		<path d="M9.175,38.793l1.459,6.496c0.057,0.253,0.246,0.455,0.496,0.527c0.25,0.071,0.518,0.004,0.701-0.181l11.092-11.093
			l11.095,11.093c0.184,0.185,0.452,0.252,0.7,0.181c0.25-0.072,0.439-0.274,0.496-0.527l1.457-6.496L22.923,25.044L9.175,38.793z"
			/>
		<path d="M34.544,22.924l11.092-11.094c0.185-0.184,0.252-0.452,0.181-0.701c-0.072-0.25-0.273-0.439-0.527-0.496l-6.496-1.459
			L25.044,22.923l13.748,13.749l6.496-1.457c0.254-0.057,0.455-0.248,0.527-0.497c0.071-0.249,0.004-0.519-0.181-0.702
			L34.544,22.924z"/>
		<path d="M7.054,9.174l-6.496,1.46c-0.254,0.058-0.457,0.247-0.529,0.497c-0.072,0.249-0.002,0.518,0.182,0.701l11.091,11.092
			L0.21,34.014c-0.184,0.185-0.254,0.453-0.182,0.703c0.073,0.248,0.275,0.439,0.529,0.496l6.496,1.459l13.749-13.749L7.054,9.174z"
			/>
		<path d="M36.671,7.053l-1.457-6.496c-0.057-0.252-0.246-0.455-0.496-0.527c-0.248-0.072-0.518-0.004-0.7,0.18L22.923,11.302
			L11.831,0.209c-0.184-0.184-0.451-0.252-0.701-0.18s-0.439,0.274-0.496,0.527L9.175,7.052l13.748,13.749L36.671,7.053z"/>
	</g>
</g>
</svg>